<svg xmlns="http://www.w3.org/2000/svg" version="1.1" width="967" height="79">
<path d="M 0.547852 32.111328 L 6.241211 32.111328 L 6.241211 33.019043 L 0.547852 33.019043 Z " fill="rgb(4, 249, 0)" fill-opacity="1.000000" />
<path d="M 7.547852 32.111328 L 13.241211 32.111328 L 13.241211 33.019043 L 7.547852 33.019043 Z " fill="rgb(4, 249, 0)" fill-opacity="1.000000" />
<path d="M 66.985352 40.631836 L 66.985352 43.978027 L 65.782227 43.978027 L 65.782227 40.631836 Z " fill="rgb(4, 249, 0)" fill-opacity="1.000000" />
<path d="M 408.562012 66.202148 L 410.071289 68.221680 L 409.244141 68.221680 L 407.498535 66.202148 Z " fill="rgb(4, 249, 0)" fill-opacity="1.000000" />
<path d="M 413.547852 71.111328 L 419.241211 71.111328 L 419.241211 72.019043 L 413.547852 72.019043 Z " fill="rgb(4, 249, 0)" fill-opacity="1.000000" />
<path d="M 423.985352 66.631836 L 423.985352 69.978027 L 422.782227 69.978027 L 422.782227 66.631836 Z " fill="rgb(4, 249, 0)" fill-opacity="1.000000" />
<path d="M 793.562012 66.202148 L 795.071289 68.221680 L 794.244141 68.221680 L 792.498535 66.202148 Z " fill="rgb(4, 249, 0)" fill-opacity="1.000000" />
<path d="M 801.985352 66.631836 L 801.985352 69.978027 L 800.782227 69.978027 L 800.782227 66.631836 Z " fill="rgb(4, 249, 0)" fill-opacity="1.000000" />
<path d="M 417.774902 53.980957 L 418.795410 53.980957 L 414.573730 63.020508 L 413.547852 63.020508 Z " fill="rgb(4, 249, 0)" fill-opacity="1.000000" />
<path d="M 423.985352 53.594238 L 423.985352 64.594238 L 423.061523 64.594238 L 423.061523 53.594238 Z " fill="rgb(4, 249, 0)" fill-opacity="1.000000" />
<path d="M 486.985352 53.631836 L 486.985352 56.978027 L 485.782227 56.978027 L 485.782227 53.631836 Z " fill="rgb(4, 249, 0)" fill-opacity="1.000000" />
<path d="M 793.374023 60.061035 L 795.049805 60.061035 L 795.049805 61.484375 L 793.857422 63.799316 L 792.783203 63.804688 L 793.374023 61.484375 Z " fill="rgb(4, 249, 0)" fill-opacity="1.000000" />
<path d="M 801.985352 53.594238 L 801.985352 64.594238 L 801.061523 64.594238 L 801.061523 53.594238 Z " fill="rgb(4, 249, 0)" fill-opacity="1.000000" />
<path d="M 79.562012 40.202148 L 81.071289 42.221680 L 80.244141 42.221680 L 78.498535 40.202148 Z " fill="rgb(4, 249, 0)" fill-opacity="1.000000" />
<path d="M 142.562012 40.202148 L 144.071289 42.221680 L 143.244141 42.221680 L 141.498535 40.202148 Z " fill="rgb(4, 249, 0)" fill-opacity="1.000000" />
<path d="M 147.547852 45.111328 L 153.241211 45.111328 L 153.241211 46.019043 L 147.547852 46.019043 Z " fill="rgb(4, 249, 0)" fill-opacity="1.000000" />
<path d="M 157.985352 40.631836 L 157.985352 43.978027 L 156.782227 43.978027 L 156.782227 40.631836 Z " fill="rgb(4, 249, 0)" fill-opacity="1.000000" />
<path d="M 185.985352 40.631836 L 185.985352 43.978027 L 184.782227 43.978027 L 184.782227 40.631836 Z " fill="rgb(4, 249, 0)" fill-opacity="1.000000" />
<path d="M 199.985352 40.631836 L 199.985352 43.978027 L 198.782227 43.978027 L 198.782227 40.631836 Z " fill="rgb(4, 249, 0)" fill-opacity="1.000000" />
<path d="M 212.562012 40.202148 L 214.071289 42.221680 L 213.244141 42.221680 L 211.498535 40.202148 Z " fill="rgb(4, 249, 0)" fill-opacity="1.000000" />
<path d="M 217.547852 45.111328 L 223.241211 45.111328 L 223.241211 46.019043 L 217.547852 46.019043 Z " fill="rgb(4, 249, 0)" fill-opacity="1.000000" />
<path d="M 227.985352 40.631836 L 227.985352 43.978027 L 226.782227 43.978027 L 226.782227 40.631836 Z " fill="rgb(4, 249, 0)" fill-opacity="1.000000" />
<path d="M 247.562012 40.202148 L 249.071289 42.221680 L 248.244141 42.221680 L 246.498535 40.202148 Z " fill="rgb(4, 249, 0)" fill-opacity="1.000000" />
<path d="M 252.547852 45.111328 L 258.241211 45.111328 L 258.241211 46.019043 L 252.547852 46.019043 Z " fill="rgb(4, 249, 0)" fill-opacity="1.000000" />
<path d="M 262.786621 41.007812 L 265.423828 44.208984 L 264.279785 44.203613 L 262.308594 42.092773 L 260.342773 44.203613 L 259.193359 44.208984 L 261.835938 41.007812 Z " fill="rgb(4, 249, 0)" fill-opacity="1.000000" />
<path d="M 266.547852 45.111328 L 272.241211 45.111328 L 272.241211 46.019043 L 266.547852 46.019043 Z " fill="rgb(4, 249, 0)" fill-opacity="1.000000" />
<path d="M 273.547852 45.111328 L 279.241211 45.111328 L 279.241211 46.019043 L 273.547852 46.019043 Z " fill="rgb(4, 249, 0)" fill-opacity="1.000000" />
<path d="M 280.547852 45.111328 L 286.241211 45.111328 L 286.241211 46.019043 L 280.547852 46.019043 Z " fill="rgb(4, 249, 0)" fill-opacity="1.000000" />
<path d="M 290.985352 40.631836 L 290.985352 43.978027 L 289.782227 43.978027 L 289.782227 40.631836 Z " fill="rgb(4, 249, 0)" fill-opacity="1.000000" />
<path d="M 303.562012 40.202148 L 305.071289 42.221680 L 304.244141 42.221680 L 302.498535 40.202148 Z " fill="rgb(4, 249, 0)" fill-opacity="1.000000" />
<path d="M 308.547852 45.111328 L 314.241211 45.111328 L 314.241211 46.019043 L 308.547852 46.019043 Z " fill="rgb(4, 249, 0)" fill-opacity="1.000000" />
<path d="M 318.985352 40.631836 L 318.985352 43.978027 L 317.782227 43.978027 L 317.782227 40.631836 Z " fill="rgb(4, 249, 0)" fill-opacity="1.000000" />
<path d="M 331.562012 40.202148 L 333.071289 42.221680 L 332.244141 42.221680 L 330.498535 40.202148 Z " fill="rgb(4, 249, 0)" fill-opacity="1.000000" />
<path d="M 336.547852 45.111328 L 342.241211 45.111328 L 342.241211 46.019043 L 336.547852 46.019043 Z " fill="rgb(4, 249, 0)" fill-opacity="1.000000" />
<path d="M 346.786621 41.007812 L 349.423828 44.208984 L 348.279785 44.203613 L 346.308594 42.092773 L 344.342773 44.203613 L 343.193359 44.208984 L 345.835938 41.007812 Z " fill="rgb(4, 249, 0)" fill-opacity="1.000000" />
<path d="M 359.562012 40.202148 L 361.071289 42.221680 L 360.244141 42.221680 L 358.498535 40.202148 Z " fill="rgb(4, 249, 0)" fill-opacity="1.000000" />
<path d="M 364.547852 45.111328 L 370.241211 45.111328 L 370.241211 46.019043 L 364.547852 46.019043 Z " fill="rgb(4, 249, 0)" fill-opacity="1.000000" />
<path d="M 374.786621 41.007812 L 377.423828 44.208984 L 376.279785 44.203613 L 374.308594 42.092773 L 372.342773 44.203613 L 371.193359 44.208984 L 373.835938 41.007812 Z " fill="rgb(4, 249, 0)" fill-opacity="1.000000" />
<path d="M 387.562012 40.202148 L 389.071289 42.221680 L 388.244141 42.221680 L 386.498535 40.202148 Z " fill="rgb(4, 249, 0)" fill-opacity="1.000000" />
<path d="M 395.985352 40.631836 L 395.985352 43.978027 L 394.782227 43.978027 L 394.782227 40.631836 Z " fill="rgb(4, 249, 0)" fill-opacity="1.000000" />
<path d="M 408.562012 40.202148 L 410.071289 42.221680 L 409.244141 42.221680 L 407.498535 40.202148 Z " fill="rgb(4, 249, 0)" fill-opacity="1.000000" />
<path d="M 413.547852 45.111328 L 419.241211 45.111328 L 419.241211 46.019043 L 413.547852 46.019043 Z " fill="rgb(4, 249, 0)" fill-opacity="1.000000" />
<path d="M 423.985352 40.594238 L 423.985352 51.594238 L 423.061523 51.594238 L 423.061523 40.594238 Z " fill="rgb(4, 249, 0)" fill-opacity="1.000000" />
<path d="M 457.562012 40.202148 L 459.071289 42.221680 L 458.244141 42.221680 L 456.498535 40.202148 Z " fill="rgb(4, 249, 0)" fill-opacity="1.000000" />
<path d="M 462.547852 45.111328 L 468.241211 45.111328 L 468.241211 46.019043 L 462.547852 46.019043 Z " fill="rgb(4, 249, 0)" fill-opacity="1.000000" />
<path d="M 472.985352 40.631836 L 472.985352 43.978027 L 471.782227 43.978027 L 471.782227 40.631836 Z " fill="rgb(4, 249, 0)" fill-opacity="1.000000" />
<path d="M 486.985352 40.594238 L 486.985352 51.594238 L 486.061523 51.594238 L 486.061523 40.594238 Z " fill="rgb(4, 249, 0)" fill-opacity="1.000000" />
<path d="M 520.562012 40.202148 L 522.071289 42.221680 L 521.244141 42.221680 L 519.498535 40.202148 Z " fill="rgb(4, 249, 0)" fill-opacity="1.000000" />
<path d="M 525.547852 45.111328 L 531.241211 45.111328 L 531.241211 46.019043 L 525.547852 46.019043 Z " fill="rgb(4, 249, 0)" fill-opacity="1.000000" />
<path d="M 532.547852 45.111328 L 538.241211 45.111328 L 538.241211 46.019043 L 532.547852 46.019043 Z " fill="rgb(4, 249, 0)" fill-opacity="1.000000" />
<path d="M 542.985352 40.631836 L 542.985352 43.978027 L 541.782227 43.978027 L 541.782227 40.631836 Z " fill="rgb(4, 249, 0)" fill-opacity="1.000000" />
<path d="M 562.562012 40.202148 L 564.071289 42.221680 L 563.244141 42.221680 L 561.498535 40.202148 Z " fill="rgb(4, 249, 0)" fill-opacity="1.000000" />
<path d="M 567.547852 45.111328 L 573.241211 45.111328 L 573.241211 46.019043 L 567.547852 46.019043 Z " fill="rgb(4, 249, 0)" fill-opacity="1.000000" />
<path d="M 574.547852 45.111328 L 580.241211 45.111328 L 580.241211 46.019043 L 574.547852 46.019043 Z " fill="rgb(4, 249, 0)" fill-opacity="1.000000" />
<path d="M 581.547852 45.111328 L 587.241211 45.111328 L 587.241211 46.019043 L 581.547852 46.019043 Z " fill="rgb(4, 249, 0)" fill-opacity="1.000000" />
<path d="M 591.985352 40.631836 L 591.985352 43.978027 L 590.782227 43.978027 L 590.782227 40.631836 Z " fill="rgb(4, 249, 0)" fill-opacity="1.000000" />
<path d="M 604.562012 40.202148 L 606.071289 42.221680 L 605.244141 42.221680 L 603.498535 40.202148 Z " fill="rgb(4, 249, 0)" fill-opacity="1.000000" />
<path d="M 609.547852 45.111328 L 615.241211 45.111328 L 615.241211 46.019043 L 609.547852 46.019043 Z " fill="rgb(4, 249, 0)" fill-opacity="1.000000" />
<path d="M 616.547852 45.111328 L 622.241211 45.111328 L 622.241211 46.019043 L 616.547852 46.019043 Z " fill="rgb(4, 249, 0)" fill-opacity="1.000000" />
<path d="M 623.547852 45.111328 L 629.241211 45.111328 L 629.241211 46.019043 L 623.547852 46.019043 Z " fill="rgb(4, 249, 0)" fill-opacity="1.000000" />
<path d="M 633.985352 40.631836 L 633.985352 43.978027 L 632.782227 43.978027 L 632.782227 40.631836 Z " fill="rgb(4, 249, 0)" fill-opacity="1.000000" />
<path d="M 660.562012 40.202148 L 662.071289 42.221680 L 661.244141 42.221680 L 659.498535 40.202148 Z " fill="rgb(4, 249, 0)" fill-opacity="1.000000" />
<path d="M 665.547852 45.111328 L 671.241211 45.111328 L 671.241211 46.019043 L 665.547852 46.019043 Z " fill="rgb(4, 249, 0)" fill-opacity="1.000000" />
<path d="M 675.786621 41.007812 L 678.423828 44.208984 L 677.279785 44.203613 L 675.308594 42.092773 L 673.342773 44.203613 L 672.193359 44.208984 L 674.835938 41.007812 Z " fill="rgb(4, 249, 0)" fill-opacity="1.000000" />
<path d="M 679.547852 45.111328 L 685.241211 45.111328 L 685.241211 46.019043 L 679.547852 46.019043 Z " fill="rgb(4, 249, 0)" fill-opacity="1.000000" />
<path d="M 686.547852 45.111328 L 692.241211 45.111328 L 692.241211 46.019043 L 686.547852 46.019043 Z " fill="rgb(4, 249, 0)" fill-opacity="1.000000" />
<path d="M 696.985352 40.631836 L 696.985352 43.978027 L 695.782227 43.978027 L 695.782227 40.631836 Z " fill="rgb(4, 249, 0)" fill-opacity="1.000000" />
<path d="M 716.562012 40.202148 L 718.071289 42.221680 L 717.244141 42.221680 L 715.498535 40.202148 Z " fill="rgb(4, 249, 0)" fill-opacity="1.000000" />
<path d="M 721.547852 45.111328 L 727.241211 45.111328 L 727.241211 46.019043 L 721.547852 46.019043 Z " fill="rgb(4, 249, 0)" fill-opacity="1.000000" />
<path d="M 731.985352 40.631836 L 731.985352 43.978027 L 730.782227 43.978027 L 730.782227 40.631836 Z " fill="rgb(4, 249, 0)" fill-opacity="1.000000" />
<path d="M 744.562012 40.202148 L 746.071289 42.221680 L 745.244141 42.221680 L 743.498535 40.202148 Z " fill="rgb(4, 249, 0)" fill-opacity="1.000000" />
<path d="M 749.547852 45.111328 L 755.241211 45.111328 L 755.241211 46.019043 L 749.547852 46.019043 Z " fill="rgb(4, 249, 0)" fill-opacity="1.000000" />
<path d="M 759.985352 40.631836 L 759.985352 43.978027 L 758.782227 43.978027 L 758.782227 40.631836 Z " fill="rgb(4, 249, 0)" fill-opacity="1.000000" />
<path d="M 773.985352 40.631836 L 773.985352 43.978027 L 772.782227 43.978027 L 772.782227 40.631836 Z " fill="rgb(4, 249, 0)" fill-opacity="1.000000" />
<path d="M 786.562012 40.202148 L 788.071289 42.221680 L 787.244141 42.221680 L 785.498535 40.202148 Z " fill="rgb(4, 249, 0)" fill-opacity="1.000000" />
<path d="M 791.547852 45.111328 L 797.241211 45.111328 L 797.241211 46.019043 L 791.547852 46.019043 Z " fill="rgb(4, 249, 0)" fill-opacity="1.000000" />
<path d="M 801.985352 40.594238 L 801.985352 51.594238 L 801.061523 51.594238 L 801.061523 40.594238 Z " fill="rgb(4, 249, 0)" fill-opacity="1.000000" />
<path d="M 815.985352 40.631836 L 815.985352 43.978027 L 814.782227 43.978027 L 814.782227 40.631836 Z " fill="rgb(4, 249, 0)" fill-opacity="1.000000" />
<path d="M 829.985352 40.631836 L 829.985352 43.978027 L 828.782227 43.978027 L 828.782227 40.631836 Z " fill="rgb(4, 249, 0)" fill-opacity="1.000000" />
<path d="M 885.985352 40.631836 L 885.985352 43.978027 L 884.782227 43.978027 L 884.782227 40.631836 Z " fill="rgb(4, 249, 0)" fill-opacity="1.000000" />
<path d="M 898.562012 40.202148 L 900.071289 42.221680 L 899.244141 42.221680 L 897.498535 40.202148 Z " fill="rgb(4, 249, 0)" fill-opacity="1.000000" />
<path d="M 21.547852 32.111328 L 27.241211 32.111328 L 27.241211 33.019043 L 21.547852 33.019043 Z " fill="rgb(4, 249, 0)" fill-opacity="1.000000" />
<path d="M 28.547852 32.111328 L 34.241211 32.111328 L 34.241211 33.019043 L 28.547852 33.019043 Z " fill="rgb(4, 249, 0)" fill-opacity="1.000000" />
<path d="M 48.574219 37.020508 L 48.574219 37.933594 L 42.000000 37.933594 L 42.000000 37.020508 Z " fill="rgb(4, 249, 0)" fill-opacity="1.000000" />
<path d="M 55.574219 37.020508 L 55.574219 37.933594 L 49.000000 37.933594 L 49.000000 37.020508 Z " fill="rgb(4, 249, 0)" fill-opacity="1.000000" />
<path d="M 63.547852 32.111328 L 69.241211 32.111328 L 69.241211 33.019043 L 63.547852 33.019043 Z " fill="rgb(4, 249, 0)" fill-opacity="1.000000" />
<path d="M 70.461914 27.980957 L 71.627441 27.980957 L 73.389160 31.004883 L 75.183105 27.980957 L 76.348633 27.980957 L 73.947754 31.751465 L 76.520508 36.000000 L 75.354980 36.000000 L 73.389160 32.546387 L 71.267578 36.000000 L 70.096680 36.000000 L 72.782227 31.751465 Z " fill="rgb(4, 249, 0)" fill-opacity="1.000000" />
<path d="M 77.547852 32.111328 L 83.241211 32.111328 L 83.241211 33.019043 L 77.547852 33.019043 Z " fill="rgb(4, 249, 0)" fill-opacity="1.000000" />
<path d="M 142.374023 34.061035 L 144.049805 34.061035 L 144.049805 35.484375 L 142.857422 37.799316 L 141.783203 37.804688 L 142.374023 35.484375 Z " fill="rgb(4, 249, 0)" fill-opacity="1.000000" />
<path d="M 157.985352 27.594238 L 157.985352 38.594238 L 157.061523 38.594238 L 157.061523 27.594238 Z " fill="rgb(4, 249, 0)" fill-opacity="1.000000" />
<path d="M 185.985352 27.594238 L 185.985352 38.594238 L 185.061523 38.594238 L 185.061523 27.594238 Z " fill="rgb(4, 249, 0)" fill-opacity="1.000000" />
<path d="M 199.985352 27.594238 L 199.985352 38.594238 L 199.061523 38.594238 L 199.061523 27.594238 Z " fill="rgb(4, 249, 0)" fill-opacity="1.000000" />
<path d="M 213.985352 27.594238 L 213.985352 38.594238 L 213.061523 38.594238 L 213.061523 27.594238 Z " fill="rgb(4, 249, 0)" fill-opacity="1.000000" />
<path d="M 217.547852 32.111328 L 223.241211 32.111328 L 223.241211 33.019043 L 217.547852 33.019043 Z " fill="rgb(4, 249, 0)" fill-opacity="1.000000" />
<path d="M 227.985352 27.631836 L 227.985352 30.978027 L 226.782227 30.978027 L 226.782227 27.631836 Z " fill="rgb(4, 249, 0)" fill-opacity="1.000000" />
<path d="M 254.374023 34.061035 L 256.049805 34.061035 L 256.049805 35.484375 L 254.857422 37.799316 L 253.783203 37.804688 L 254.374023 35.484375 Z " fill="rgb(4, 249, 0)" fill-opacity="1.000000" />
<path d="M 262.985352 27.594238 L 262.985352 38.594238 L 262.061523 38.594238 L 262.061523 27.594238 Z " fill="rgb(4, 249, 0)" fill-opacity="1.000000" />
<path d="M 288.573730 27.980957 L 292.795410 37.020508 L 291.774902 37.020508 L 287.547852 27.980957 Z " fill="rgb(4, 249, 0)" fill-opacity="1.000000" />
<path d="M 304.985352 27.594238 L 304.985352 38.594238 L 304.061523 38.594238 L 304.061523 27.594238 Z " fill="rgb(4, 249, 0)" fill-opacity="1.000000" />
<path d="M 308.547852 32.111328 L 314.241211 32.111328 L 314.241211 33.019043 L 308.547852 33.019043 Z " fill="rgb(4, 249, 0)" fill-opacity="1.000000" />
<path d="M 318.985352 27.631836 L 318.985352 30.978027 L 317.782227 30.978027 L 317.782227 27.631836 Z " fill="rgb(4, 249, 0)" fill-opacity="1.000000" />
<path d="M 331.374023 34.061035 L 333.049805 34.061035 L 333.049805 35.484375 L 331.857422 37.799316 L 330.783203 37.804688 L 331.374023 35.484375 Z " fill="rgb(4, 249, 0)" fill-opacity="1.000000" />
<path d="M 336.547852 32.111328 L 342.241211 32.111328 L 342.241211 33.019043 L 336.547852 33.019043 Z " fill="rgb(4, 249, 0)" fill-opacity="1.000000" />
<path d="M 346.985352 27.594238 L 346.985352 38.594238 L 346.061523 38.594238 L 346.061523 27.594238 Z " fill="rgb(4, 249, 0)" fill-opacity="1.000000" />
<path d="M 360.985352 27.594238 L 360.985352 38.594238 L 360.061523 38.594238 L 360.061523 27.594238 Z " fill="rgb(4, 249, 0)" fill-opacity="1.000000" />
<path d="M 374.985352 27.594238 L 374.985352 38.594238 L 374.061523 38.594238 L 374.061523 27.594238 Z " fill="rgb(4, 249, 0)" fill-opacity="1.000000" />
<path d="M 388.985352 27.594238 L 388.985352 38.594238 L 388.061523 38.594238 L 388.061523 27.594238 Z " fill="rgb(4, 249, 0)" fill-opacity="1.000000" />
<path d="M 409.985352 27.594238 L 409.985352 38.594238 L 409.061523 38.594238 L 409.061523 27.594238 Z " fill="rgb(4, 249, 0)" fill-opacity="1.000000" />
<path d="M 423.985352 27.594238 L 423.985352 38.594238 L 423.061523 38.594238 L 423.061523 27.594238 Z " fill="rgb(4, 249, 0)" fill-opacity="1.000000" />
<path d="M 458.985352 27.594238 L 458.985352 38.594238 L 458.061523 38.594238 L 458.061523 27.594238 Z " fill="rgb(4, 249, 0)" fill-opacity="1.000000" />
<path d="M 472.985352 27.594238 L 472.985352 38.594238 L 472.061523 38.594238 L 472.061523 27.594238 Z " fill="rgb(4, 249, 0)" fill-opacity="1.000000" />
<path d="M 486.985352 27.594238 L 486.985352 38.594238 L 486.061523 38.594238 L 486.061523 27.594238 Z " fill="rgb(4, 249, 0)" fill-opacity="1.000000" />
<path d="M 490.547852 32.111328 L 496.241211 32.111328 L 496.241211 33.019043 L 490.547852 33.019043 Z " fill="rgb(4, 249, 0)" fill-opacity="1.000000" />
<path d="M 521.985352 27.594238 L 521.985352 38.594238 L 521.061523 38.594238 L 521.061523 27.594238 Z " fill="rgb(4, 249, 0)" fill-opacity="1.000000" />
<path d="M 548.089355 33.830078 L 549.979980 33.830078 L 549.979980 36.000000 L 548.089355 36.000000 Z " fill="rgb(4, 249, 0)" fill-opacity="1.000000" />
<path d="M 589.573730 27.980957 L 593.795410 37.020508 L 592.774902 37.020508 L 588.547852 27.980957 Z " fill="rgb(4, 249, 0)" fill-opacity="1.000000" />
<path d="M 631.573730 27.980957 L 635.795410 37.020508 L 634.774902 37.020508 L 630.547852 27.980957 Z " fill="rgb(4, 249, 0)" fill-opacity="1.000000" />
<path d="M 660.374023 34.061035 L 662.049805 34.061035 L 662.049805 35.484375 L 660.857422 37.799316 L 659.783203 37.804688 L 660.374023 35.484375 Z " fill="rgb(4, 249, 0)" fill-opacity="1.000000" />
<path d="M 675.985352 27.594238 L 675.985352 38.594238 L 675.061523 38.594238 L 675.061523 27.594238 Z " fill="rgb(4, 249, 0)" fill-opacity="1.000000" />
<path d="M 704.774902 27.980957 L 705.795410 27.980957 L 701.573730 37.020508 L 700.547852 37.020508 Z " fill="rgb(4, 249, 0)" fill-opacity="1.000000" />
<path d="M 717.985352 27.594238 L 717.985352 38.594238 L 717.061523 38.594238 L 717.061523 27.594238 Z " fill="rgb(4, 249, 0)" fill-opacity="1.000000" />
<path d="M 721.547852 32.111328 L 727.241211 32.111328 L 727.241211 33.019043 L 721.547852 33.019043 Z " fill="rgb(4, 249, 0)" fill-opacity="1.000000" />
<path d="M 731.985352 27.631836 L 731.985352 30.978027 L 730.782227 30.978027 L 730.782227 27.631836 Z " fill="rgb(4, 249, 0)" fill-opacity="1.000000" />
<path d="M 744.562012 27.202148 L 746.071289 29.221680 L 745.244141 29.221680 L 743.498535 27.202148 Z " fill="rgb(4, 249, 0)" fill-opacity="1.000000" />
<path d="M 749.547852 32.111328 L 755.241211 32.111328 L 755.241211 33.019043 L 749.547852 33.019043 Z " fill="rgb(4, 249, 0)" fill-opacity="1.000000" />
<path d="M 758.089355 33.830078 L 759.979980 33.830078 L 759.979980 36.000000 L 758.089355 36.000000 Z " fill="rgb(4, 249, 0)" fill-opacity="1.000000" />
<path d="M 773.985352 27.594238 L 773.985352 38.594238 L 773.061523 38.594238 L 773.061523 27.594238 Z " fill="rgb(4, 249, 0)" fill-opacity="1.000000" />
<path d="M 787.985352 27.594238 L 787.985352 38.594238 L 787.061523 38.594238 L 787.061523 27.594238 Z " fill="rgb(4, 249, 0)" fill-opacity="1.000000" />
<path d="M 801.985352 27.594238 L 801.985352 38.594238 L 801.061523 38.594238 L 801.061523 27.594238 Z " fill="rgb(4, 249, 0)" fill-opacity="1.000000" />
<path d="M 815.985352 27.594238 L 815.985352 38.594238 L 815.061523 38.594238 L 815.061523 27.594238 Z " fill="rgb(4, 249, 0)" fill-opacity="1.000000" />
<path d="M 829.985352 27.594238 L 829.985352 38.594238 L 829.061523 38.594238 L 829.061523 27.594238 Z " fill="rgb(4, 249, 0)" fill-opacity="1.000000" />
<path d="M 882.547852 32.111328 L 888.241211 32.111328 L 888.241211 33.019043 L 882.547852 33.019043 Z " fill="rgb(4, 249, 0)" fill-opacity="1.000000" />
<path d="M 889.461914 27.980957 L 890.627441 27.980957 L 892.389160 31.004883 L 894.183105 27.980957 L 895.348633 27.980957 L 892.947754 31.751465 L 895.520508 36.000000 L 894.354980 36.000000 L 892.389160 32.546387 L 890.267578 36.000000 L 889.096680 36.000000 L 891.782227 31.751465 Z " fill="rgb(4, 249, 0)" fill-opacity="1.000000" />
<path d="M 896.547852 32.111328 L 902.241211 32.111328 L 902.241211 33.019043 L 896.547852 33.019043 Z " fill="rgb(4, 249, 0)" fill-opacity="1.000000" />
<path d="M 916.574219 37.020508 L 916.574219 37.933594 L 910.000000 37.933594 L 910.000000 37.020508 Z " fill="rgb(4, 249, 0)" fill-opacity="1.000000" />
<path d="M 923.574219 37.020508 L 923.574219 37.933594 L 917.000000 37.933594 L 917.000000 37.020508 Z " fill="rgb(4, 249, 0)" fill-opacity="1.000000" />
<path d="M 931.547852 32.111328 L 937.241211 32.111328 L 937.241211 33.019043 L 931.547852 33.019043 Z " fill="rgb(4, 249, 0)" fill-opacity="1.000000" />
<path d="M 938.547852 32.111328 L 944.241211 32.111328 L 944.241211 33.019043 L 938.547852 33.019043 Z " fill="rgb(4, 249, 0)" fill-opacity="1.000000" />
<path d="M 952.547852 32.111328 L 958.241211 32.111328 L 958.241211 33.019043 L 952.547852 33.019043 Z " fill="rgb(4, 249, 0)" fill-opacity="1.000000" />
<path d="M 959.547852 32.111328 L 965.241211 32.111328 L 965.241211 33.019043 L 959.547852 33.019043 Z " fill="rgb(4, 249, 0)" fill-opacity="1.000000" />
<path d="M 48.574219 24.020508 L 48.574219 24.933594 L 42.000000 24.933594 L 42.000000 24.020508 Z " fill="rgb(4, 249, 0)" fill-opacity="1.000000" />
<path d="M 55.574219 24.020508 L 55.574219 24.933594 L 49.000000 24.933594 L 49.000000 24.020508 Z " fill="rgb(4, 249, 0)" fill-opacity="1.000000" />
<path d="M 65.089355 20.830078 L 66.979980 20.830078 L 66.979980 23.000000 L 65.089355 23.000000 Z " fill="rgb(4, 249, 0)" fill-opacity="1.000000" />
<path d="M 79.374023 21.061035 L 81.049805 21.061035 L 81.049805 22.484375 L 79.857422 24.799316 L 78.783203 24.804688 L 79.374023 22.484375 Z " fill="rgb(4, 249, 0)" fill-opacity="1.000000" />
<path d="M 135.562012 14.202148 L 137.071289 16.221680 L 136.244141 16.221680 L 134.498535 14.202148 Z " fill="rgb(4, 249, 0)" fill-opacity="1.000000" />
<path d="M 140.547852 19.111328 L 146.241211 19.111328 L 146.241211 20.019043 L 140.547852 20.019043 Z " fill="rgb(4, 249, 0)" fill-opacity="1.000000" />
<path d="M 157.985352 14.594238 L 157.985352 25.594238 L 157.061523 25.594238 L 157.061523 14.594238 Z " fill="rgb(4, 249, 0)" fill-opacity="1.000000" />
<path d="M 185.985352 14.594238 L 185.985352 25.594238 L 185.061523 25.594238 L 185.061523 14.594238 Z " fill="rgb(4, 249, 0)" fill-opacity="1.000000" />
<path d="M 189.547852 19.111328 L 195.241211 19.111328 L 195.241211 20.019043 L 189.547852 20.019043 Z " fill="rgb(4, 249, 0)" fill-opacity="1.000000" />
<path d="M 198.089355 20.830078 L 199.979980 20.830078 L 199.979980 23.000000 L 198.089355 23.000000 Z " fill="rgb(4, 249, 0)" fill-opacity="1.000000" />
<path d="M 212.374023 21.061035 L 214.049805 21.061035 L 214.049805 22.484375 L 212.857422 24.799316 L 211.783203 24.804688 L 212.374023 22.484375 Z " fill="rgb(4, 249, 0)" fill-opacity="1.000000" />
<path d="M 217.547852 19.111328 L 223.241211 19.111328 L 223.241211 20.019043 L 217.547852 20.019043 Z " fill="rgb(4, 249, 0)" fill-opacity="1.000000" />
<path d="M 226.089355 20.830078 L 227.979980 20.830078 L 227.979980 23.000000 L 226.089355 23.000000 Z " fill="rgb(4, 249, 0)" fill-opacity="1.000000" />
<path d="M 255.985352 14.631836 L 255.985352 17.978027 L 254.782227 17.978027 L 254.782227 14.631836 Z " fill="rgb(4, 249, 0)" fill-opacity="1.000000" />
<path d="M 262.985352 14.594238 L 262.985352 25.594238 L 262.061523 25.594238 L 262.061523 14.594238 Z " fill="rgb(4, 249, 0)" fill-opacity="1.000000" />
<path d="M 272.574219 24.020508 L 272.574219 24.933594 L 266.000000 24.933594 L 266.000000 24.020508 Z " fill="rgb(4, 249, 0)" fill-opacity="1.000000" />
<path d="M 279.574219 24.020508 L 279.574219 24.933594 L 273.000000 24.933594 L 273.000000 24.020508 Z " fill="rgb(4, 249, 0)" fill-opacity="1.000000" />
<path d="M 286.574219 24.020508 L 286.574219 24.933594 L 280.000000 24.933594 L 280.000000 24.020508 Z " fill="rgb(4, 249, 0)" fill-opacity="1.000000" />
<path d="M 291.774902 14.980957 L 292.795410 14.980957 L 288.573730 24.020508 L 287.547852 24.020508 Z " fill="rgb(4, 249, 0)" fill-opacity="1.000000" />
<path d="M 303.374023 21.061035 L 305.049805 21.061035 L 305.049805 22.484375 L 303.857422 24.799316 L 302.783203 24.804688 L 303.374023 22.484375 Z " fill="rgb(4, 249, 0)" fill-opacity="1.000000" />
<path d="M 308.547852 19.111328 L 314.241211 19.111328 L 314.241211 20.019043 L 308.547852 20.019043 Z " fill="rgb(4, 249, 0)" fill-opacity="1.000000" />
<path d="M 317.089355 20.830078 L 318.979980 20.830078 L 318.979980 23.000000 L 317.089355 23.000000 Z " fill="rgb(4, 249, 0)" fill-opacity="1.000000" />
<path d="M 331.374023 21.061035 L 333.049805 21.061035 L 333.049805 22.484375 L 331.857422 24.799316 L 330.783203 24.804688 L 331.374023 22.484375 Z " fill="rgb(4, 249, 0)" fill-opacity="1.000000" />
<path d="M 336.547852 19.111328 L 342.241211 19.111328 L 342.241211 20.019043 L 336.547852 20.019043 Z " fill="rgb(4, 249, 0)" fill-opacity="1.000000" />
<path d="M 345.089355 20.830078 L 346.979980 20.830078 L 346.979980 23.000000 L 345.089355 23.000000 Z " fill="rgb(4, 249, 0)" fill-opacity="1.000000" />
<path d="M 359.089355 20.830078 L 360.979980 20.830078 L 360.979980 23.000000 L 359.089355 23.000000 Z " fill="rgb(4, 249, 0)" fill-opacity="1.000000" />
<path d="M 373.089355 20.830078 L 374.979980 20.830078 L 374.979980 23.000000 L 373.089355 23.000000 Z " fill="rgb(4, 249, 0)" fill-opacity="1.000000" />
<path d="M 388.985352 14.594238 L 388.985352 25.594238 L 388.061523 25.594238 L 388.061523 14.594238 Z " fill="rgb(4, 249, 0)" fill-opacity="1.000000" />
<path d="M 392.547852 19.111328 L 398.241211 19.111328 L 398.241211 20.019043 L 392.547852 20.019043 Z " fill="rgb(4, 249, 0)" fill-opacity="1.000000" />
<path d="M 408.089355 20.830078 L 409.979980 20.830078 L 409.979980 23.000000 L 408.089355 23.000000 Z " fill="rgb(4, 249, 0)" fill-opacity="1.000000" />
<path d="M 422.089355 20.830078 L 423.979980 20.830078 L 423.979980 23.000000 L 422.089355 23.000000 Z " fill="rgb(4, 249, 0)" fill-opacity="1.000000" />
<path d="M 457.374023 21.061035 L 459.049805 21.061035 L 459.049805 22.484375 L 457.857422 24.799316 L 456.783203 24.804688 L 457.374023 22.484375 Z " fill="rgb(4, 249, 0)" fill-opacity="1.000000" />
<path d="M 462.547852 19.111328 L 468.241211 19.111328 L 468.241211 20.019043 L 462.547852 20.019043 Z " fill="rgb(4, 249, 0)" fill-opacity="1.000000" />
<path d="M 471.089355 20.830078 L 472.979980 20.830078 L 472.979980 23.000000 L 471.089355 23.000000 Z " fill="rgb(4, 249, 0)" fill-opacity="1.000000" />
<path d="M 485.374023 21.061035 L 487.049805 21.061035 L 487.049805 22.484375 L 485.857422 24.799316 L 484.783203 24.804688 L 485.374023 22.484375 Z " fill="rgb(4, 249, 0)" fill-opacity="1.000000" />
<path d="M 495.075684 14.690918 L 495.075684 17.978027 L 493.872559 17.978027 L 493.872559 14.690918 Z M 492.212891 14.690918 L 492.212891 17.978027 L 491.009766 17.978027 L 491.009766 14.690918 Z " fill="rgb(4, 249, 0)" fill-opacity="1.000000" />
<path d="M 521.985352 14.594238 L 521.985352 25.594238 L 521.061523 25.594238 L 521.061523 14.594238 Z " fill="rgb(4, 249, 0)" fill-opacity="1.000000" />
<path d="M 534.562012 14.202148 L 536.071289 16.221680 L 535.244141 16.221680 L 533.498535 14.202148 Z " fill="rgb(4, 249, 0)" fill-opacity="1.000000" />
<path d="M 539.547852 19.111328 L 545.241211 19.111328 L 545.241211 20.019043 L 539.547852 20.019043 Z " fill="rgb(4, 249, 0)" fill-opacity="1.000000" />
<path d="M 549.985352 14.631836 L 549.985352 17.978027 L 548.782227 17.978027 L 548.782227 14.631836 Z " fill="rgb(4, 249, 0)" fill-opacity="1.000000" />
<path d="M 561.573730 14.980957 L 565.795410 24.020508 L 564.774902 24.020508 L 560.547852 14.980957 Z " fill="rgb(4, 249, 0)" fill-opacity="1.000000" />
<path d="M 573.574219 24.020508 L 573.574219 24.933594 L 567.000000 24.933594 L 567.000000 24.020508 Z " fill="rgb(4, 249, 0)" fill-opacity="1.000000" />
<path d="M 580.574219 24.020508 L 580.574219 24.933594 L 574.000000 24.933594 L 574.000000 24.020508 Z " fill="rgb(4, 249, 0)" fill-opacity="1.000000" />
<path d="M 587.574219 24.020508 L 587.574219 24.933594 L 581.000000 24.933594 L 581.000000 24.020508 Z " fill="rgb(4, 249, 0)" fill-opacity="1.000000" />
<path d="M 603.573730 14.980957 L 607.795410 24.020508 L 606.774902 24.020508 L 602.547852 14.980957 Z " fill="rgb(4, 249, 0)" fill-opacity="1.000000" />
<path d="M 615.574219 24.020508 L 615.574219 24.933594 L 609.000000 24.933594 L 609.000000 24.020508 Z " fill="rgb(4, 249, 0)" fill-opacity="1.000000" />
<path d="M 622.574219 24.020508 L 622.574219 24.933594 L 616.000000 24.933594 L 616.000000 24.020508 Z " fill="rgb(4, 249, 0)" fill-opacity="1.000000" />
<path d="M 629.574219 24.020508 L 629.574219 24.933594 L 623.000000 24.933594 L 623.000000 24.020508 Z " fill="rgb(4, 249, 0)" fill-opacity="1.000000" />
<path d="M 661.985352 14.631836 L 661.985352 17.978027 L 660.782227 17.978027 L 660.782227 14.631836 Z " fill="rgb(4, 249, 0)" fill-opacity="1.000000" />
<path d="M 675.985352 14.594238 L 675.985352 25.594238 L 675.061523 25.594238 L 675.061523 14.594238 Z " fill="rgb(4, 249, 0)" fill-opacity="1.000000" />
<path d="M 701.573730 14.980957 L 705.795410 24.020508 L 704.774902 24.020508 L 700.547852 14.980957 Z " fill="rgb(4, 249, 0)" fill-opacity="1.000000" />
<path d="M 716.374023 21.061035 L 718.049805 21.061035 L 718.049805 22.484375 L 716.857422 24.799316 L 715.783203 24.804688 L 716.374023 22.484375 Z " fill="rgb(4, 249, 0)" fill-opacity="1.000000" />
<path d="M 721.547852 19.111328 L 727.241211 19.111328 L 727.241211 20.019043 L 721.547852 20.019043 Z " fill="rgb(4, 249, 0)" fill-opacity="1.000000" />
<path d="M 730.089355 20.830078 L 731.979980 20.830078 L 731.979980 23.000000 L 730.089355 23.000000 Z " fill="rgb(4, 249, 0)" fill-opacity="1.000000" />
<path d="M 744.374023 21.061035 L 746.049805 21.061035 L 746.049805 22.484375 L 744.857422 24.799316 L 743.783203 24.804688 L 744.374023 22.484375 Z " fill="rgb(4, 249, 0)" fill-opacity="1.000000" />
<path d="M 749.547852 19.111328 L 755.241211 19.111328 L 755.241211 20.019043 L 749.547852 20.019043 Z " fill="rgb(4, 249, 0)" fill-opacity="1.000000" />
<path d="M 758.089355 20.830078 L 759.979980 20.830078 L 759.979980 23.000000 L 758.089355 23.000000 Z " fill="rgb(4, 249, 0)" fill-opacity="1.000000" />
<path d="M 772.089355 20.830078 L 773.979980 20.830078 L 773.979980 23.000000 L 772.089355 23.000000 Z " fill="rgb(4, 249, 0)" fill-opacity="1.000000" />
<path d="M 786.374023 21.061035 L 788.049805 21.061035 L 788.049805 22.484375 L 786.857422 24.799316 L 785.783203 24.804688 L 786.374023 22.484375 Z " fill="rgb(4, 249, 0)" fill-opacity="1.000000" />
<path d="M 791.547852 19.111328 L 797.241211 19.111328 L 797.241211 20.019043 L 791.547852 20.019043 Z " fill="rgb(4, 249, 0)" fill-opacity="1.000000" />
<path d="M 800.089355 20.830078 L 801.979980 20.830078 L 801.979980 23.000000 L 800.089355 23.000000 Z " fill="rgb(4, 249, 0)" fill-opacity="1.000000" />
<path d="M 814.374023 21.061035 L 816.049805 21.061035 L 816.049805 22.484375 L 814.857422 24.799316 L 813.783203 24.804688 L 814.374023 22.484375 Z " fill="rgb(4, 249, 0)" fill-opacity="1.000000" />
<path d="M 819.547852 19.111328 L 825.241211 19.111328 L 825.241211 20.019043 L 819.547852 20.019043 Z " fill="rgb(4, 249, 0)" fill-opacity="1.000000" />
<path d="M 828.089355 20.830078 L 829.979980 20.830078 L 829.979980 23.000000 L 828.089355 23.000000 Z " fill="rgb(4, 249, 0)" fill-opacity="1.000000" />
<path d="M 884.089355 20.830078 L 885.979980 20.830078 L 885.979980 23.000000 L 884.089355 23.000000 Z " fill="rgb(4, 249, 0)" fill-opacity="1.000000" />
<path d="M 898.374023 21.061035 L 900.049805 21.061035 L 900.049805 22.484375 L 898.857422 24.799316 L 897.783203 24.804688 L 898.374023 22.484375 Z " fill="rgb(4, 249, 0)" fill-opacity="1.000000" />
<path d="M 916.574219 24.020508 L 916.574219 24.933594 L 910.000000 24.933594 L 910.000000 24.020508 Z " fill="rgb(4, 249, 0)" fill-opacity="1.000000" />
<path d="M 923.574219 24.020508 L 923.574219 24.933594 L 917.000000 24.933594 L 917.000000 24.020508 Z " fill="rgb(4, 249, 0)" fill-opacity="1.000000" />
<path d="M 135.374023 8.061035 L 137.049805 8.061035 L 137.049805 9.484375 L 135.857422 11.799316 L 134.783203 11.804688 L 135.374023 9.484375 Z " fill="rgb(4, 249, 0)" fill-opacity="1.000000" />
<path d="M 140.547852 6.111328 L 146.241211 6.111328 L 146.241211 7.019043 L 140.547852 7.019043 Z " fill="rgb(4, 249, 0)" fill-opacity="1.000000" />
<path d="M 147.547852 6.111328 L 153.241211 6.111328 L 153.241211 7.019043 L 147.547852 7.019043 Z " fill="rgb(4, 249, 0)" fill-opacity="1.000000" />
<path d="M 156.374023 8.061035 L 158.049805 8.061035 L 158.049805 9.484375 L 156.857422 11.799316 L 155.783203 11.804688 L 156.374023 9.484375 Z " fill="rgb(4, 249, 0)" fill-opacity="1.000000" />
<path d="M 161.547852 6.111328 L 167.241211 6.111328 L 167.241211 7.019043 L 161.547852 7.019043 Z " fill="rgb(4, 249, 0)" fill-opacity="1.000000" />
<path d="M 168.547852 6.111328 L 174.241211 6.111328 L 174.241211 7.019043 L 168.547852 7.019043 Z " fill="rgb(4, 249, 0)" fill-opacity="1.000000" />
<path d="M 178.985352 1.631836 L 178.985352 4.978027 L 177.782227 4.978027 L 177.782227 1.631836 Z " fill="rgb(4, 249, 0)" fill-opacity="1.000000" />
<path d="M 184.089355 7.830078 L 185.979980 7.830078 L 185.979980 10.000000 L 184.089355 10.000000 Z " fill="rgb(4, 249, 0)" fill-opacity="1.000000" />
<path d="M 247.374023 8.061035 L 249.049805 8.061035 L 249.049805 9.484375 L 247.857422 11.799316 L 246.783203 11.804688 L 247.374023 9.484375 Z " fill="rgb(4, 249, 0)" fill-opacity="1.000000" />
<path d="M 252.547852 6.111328 L 258.241211 6.111328 L 258.241211 7.019043 L 252.547852 7.019043 Z " fill="rgb(4, 249, 0)" fill-opacity="1.000000" />
<path d="M 261.374023 8.061035 L 263.049805 8.061035 L 263.049805 9.484375 L 261.857422 11.799316 L 260.783203 11.804688 L 261.374023 9.484375 Z " fill="rgb(4, 249, 0)" fill-opacity="1.000000" />
<path d="M 266.547852 6.111328 L 272.241211 6.111328 L 272.241211 7.019043 L 266.547852 7.019043 Z " fill="rgb(4, 249, 0)" fill-opacity="1.000000" />
<path d="M 273.547852 6.111328 L 279.241211 6.111328 L 279.241211 7.019043 L 273.547852 7.019043 Z " fill="rgb(4, 249, 0)" fill-opacity="1.000000" />
<path d="M 280.547852 6.111328 L 286.241211 6.111328 L 286.241211 7.019043 L 280.547852 7.019043 Z " fill="rgb(4, 249, 0)" fill-opacity="1.000000" />
<path d="M 289.089355 7.830078 L 290.979980 7.830078 L 290.979980 10.000000 L 289.089355 10.000000 Z " fill="rgb(4, 249, 0)" fill-opacity="1.000000" />
<path d="M 387.089355 7.830078 L 388.979980 7.830078 L 388.979980 10.000000 L 387.089355 10.000000 Z " fill="rgb(4, 249, 0)" fill-opacity="1.000000" />
<path d="M 527.374023 8.061035 L 529.049805 8.061035 L 529.049805 9.484375 L 527.857422 11.799316 L 526.783203 11.804688 L 527.374023 9.484375 Z " fill="rgb(4, 249, 0)" fill-opacity="1.000000" />
<path d="M 532.547852 6.111328 L 538.241211 6.111328 L 538.241211 7.019043 L 532.547852 7.019043 Z " fill="rgb(4, 249, 0)" fill-opacity="1.000000" />
<path d="M 539.547852 6.111328 L 545.241211 6.111328 L 545.241211 7.019043 L 539.547852 7.019043 Z " fill="rgb(4, 249, 0)" fill-opacity="1.000000" />
<path d="M 548.089355 7.830078 L 549.979980 7.830078 L 549.979980 10.000000 L 548.089355 10.000000 Z " fill="rgb(4, 249, 0)" fill-opacity="1.000000" />
<path d="M 562.089355 7.830078 L 563.979980 7.830078 L 563.979980 10.000000 L 562.089355 10.000000 Z " fill="rgb(4, 249, 0)" fill-opacity="1.000000" />
<path d="M 567.547852 6.111328 L 573.241211 6.111328 L 573.241211 7.019043 L 567.547852 7.019043 Z " fill="rgb(4, 249, 0)" fill-opacity="1.000000" />
<path d="M 574.547852 6.111328 L 580.241211 6.111328 L 580.241211 7.019043 L 574.547852 7.019043 Z " fill="rgb(4, 249, 0)" fill-opacity="1.000000" />
<path d="M 581.547852 6.111328 L 587.241211 6.111328 L 587.241211 7.019043 L 581.547852 7.019043 Z " fill="rgb(4, 249, 0)" fill-opacity="1.000000" />
<path d="M 590.089355 7.830078 L 591.979980 7.830078 L 591.979980 10.000000 L 590.089355 10.000000 Z " fill="rgb(4, 249, 0)" fill-opacity="1.000000" />
<path d="M 604.089355 7.830078 L 605.979980 7.830078 L 605.979980 10.000000 L 604.089355 10.000000 Z " fill="rgb(4, 249, 0)" fill-opacity="1.000000" />
<path d="M 609.547852 6.111328 L 615.241211 6.111328 L 615.241211 7.019043 L 609.547852 7.019043 Z " fill="rgb(4, 249, 0)" fill-opacity="1.000000" />
<path d="M 616.547852 6.111328 L 622.241211 6.111328 L 622.241211 7.019043 L 616.547852 7.019043 Z " fill="rgb(4, 249, 0)" fill-opacity="1.000000" />
<path d="M 623.547852 6.111328 L 629.241211 6.111328 L 629.241211 7.019043 L 623.547852 7.019043 Z " fill="rgb(4, 249, 0)" fill-opacity="1.000000" />
<path d="M 632.089355 7.830078 L 633.979980 7.830078 L 633.979980 10.000000 L 632.089355 10.000000 Z " fill="rgb(4, 249, 0)" fill-opacity="1.000000" />
<path d="M 660.089355 7.830078 L 661.979980 7.830078 L 661.979980 10.000000 L 660.089355 10.000000 Z " fill="rgb(4, 249, 0)" fill-opacity="1.000000" />
<path d="M 665.547852 6.111328 L 671.241211 6.111328 L 671.241211 7.019043 L 665.547852 7.019043 Z " fill="rgb(4, 249, 0)" fill-opacity="1.000000" />
<path d="M 674.374023 8.061035 L 676.049805 8.061035 L 676.049805 9.484375 L 674.857422 11.799316 L 673.783203 11.804688 L 674.374023 9.484375 Z " fill="rgb(4, 249, 0)" fill-opacity="1.000000" />
<path d="M 679.547852 6.111328 L 685.241211 6.111328 L 685.241211 7.019043 L 679.547852 7.019043 Z " fill="rgb(4, 249, 0)" fill-opacity="1.000000" />
<path d="M 686.547852 6.111328 L 692.241211 6.111328 L 692.241211 7.019043 L 686.547852 7.019043 Z " fill="rgb(4, 249, 0)" fill-opacity="1.000000" />
<path d="M 695.089355 7.830078 L 696.979980 7.830078 L 696.979980 10.000000 L 695.089355 10.000000 Z " fill="rgb(4, 249, 0)" fill-opacity="1.000000" />
</svg>